<?xml version="1.0" encoding="UTF-8"?>
<svg xmlns="http://www.w3.org/2000/svg" xmlns:xlink="http://www.w3.org/1999/xlink" width="375pt" height="374.999991pt" viewBox="0 0 375 374.999991" version="1.2">
<defs>
<clipPath id="clip1">
  <path d="M 49 22.851562 L 342.796875 22.851562 L 342.796875 339 L 49 339 Z M 49 22.851562 "/>
</clipPath>
</defs>
<g id="surface1">
<rect x="0" y="0" width="375" height="374.999991" style="fill:rgb(100%,100%,100%);fill-opacity:1;stroke:none;"/>
<rect x="0" y="0" width="375" height="374.999991" style="fill:rgb(100%,100%,100%);fill-opacity:1;stroke:none;"/>
<rect x="0" y="0" width="375" height="374.999991" style="fill:rgb(20.388794%,41.569519%,68.629456%);fill-opacity:1;stroke:none;"/>
<g clip-path="url(#clip1)" clip-rule="nonzero">
<path style=" stroke:none;fill-rule:evenodd;fill:rgb(100%,8.628845%,8.628845%);fill-opacity:1;" d="M 141.257812 24.375 C 172.75 23.300781 195.367188 27.78125 217.226562 32.738281 C 215.800781 29.445312 213.773438 26.148438 211.148438 22.851562 C 270.046875 40.015625 319.488281 76.351562 331.183594 137.683594 C 335.765625 161.710938 330.972656 185.558594 342.578125 211.445312 C 336.757812 208.609375 330.929688 202.78125 325.109375 193.960938 C 321.554688 217.09375 323.613281 238.730469 338.019531 257.078125 C 326.390625 256.90625 314.386719 254.867188 301.554688 248.707031 C 276.507812 267.050781 270.753906 296.257812 265.085938 325.515625 C 255.214844 319.109375 245.335938 311.503906 235.460938 302.699219 C 235.878906 312.839844 233.21875 336.941406 244.578125 333.117188 C 188.171875 352.121094 126.144531 317.046875 118.167969 303.738281 C 116.648438 310.332031 95.277344 316.699219 99.835938 322.089844 C 63.167969 278.714844 53.984375 241.238281 69.84375 184.070312 C 63.257812 190.648438 58.445312 200.796875 53.890625 211.445312 C 44.445312 169.015625 46.851562 127.128906 82 86.730469 C 76.679688 88 70.351562 90.28125 63.007812 93.574219 C 86.808594 58.589844 121.753906 43.125 161.769531 36.542969 C 158.746094 33.121094 151.460938 28.992188 141.257812 24.375 Z M 141.257812 24.375 "/>
</g>
<path style=" stroke:none;fill-rule:evenodd;fill:rgb(100%,100%,100%);fill-opacity:1;" d="M 72.289062 230.257812 C 78.398438 254.027344 80.945312 278.011719 109.828125 300.351562 C 106.402344 291.246094 102.90625 282.140625 103.65625 273.035156 C 131.628906 311.199219 169.257812 323.558594 209.589844 328.699219 C 171.734375 306.191406 155.507812 283.6875 143.765625 261.179688 C 147.007812 276.644531 151.457031 291.933594 164.335938 306.019531 C 136.375 293.609375 112.761719 274.96875 94.402344 248.8125 C 94.058594 253.453125 94.398438 258.085938 95.429688 262.726562 C 84.425781 253.003906 78.90625 241.449219 72.289062 230.257812 Z M 72.289062 230.257812 "/>
<path style=" stroke:none;fill-rule:evenodd;fill:rgb(100%,100%,100%);fill-opacity:1;" d="M 200.332031 317.875 C 186.652344 303.300781 154.066406 275.125 180.792969 235.414062 C 189.742188 222.113281 199.566406 212.648438 204.445312 200.363281 C 205.144531 212.726562 202.722656 225.089844 200.332031 242.113281 C 198.542969 254.886719 204.269531 267.019531 213.191406 277.160156 C 211.640625 261.867188 213.78125 246.734375 222.960938 231.289062 C 232.46875 215.289062 233.929688 200.878906 232.214844 187.480469 C 243.183594 202.171875 247.640625 221.753906 247.644531 244.6875 C 269.546875 159.167969 208.078125 79.515625 117.027344 100.375 C 143.765625 64.75 174.792969 53.847656 207.019531 49.867188 C 187.976562 57.589844 170.144531 65.835938 160.738281 77.699219 C 213.589844 60.617188 244.765625 70.097656 272.839844 83.371094 C 235.128906 74.820312 199.648438 75.765625 167.421875 90.582031 C 192.792969 96.425781 209.929688 105.015625 218.847656 116.355469 C 219.90625 98.285156 252.546875 90.398438 260.496094 106.046875 C 268.605469 122 252.859375 132.917969 239.417969 135.941406 C 259.515625 155.183594 269.027344 180.953125 271.296875 211.191406 C 274.042969 209.128906 275.582031 205.867188 276.953125 202.425781 C 278.242188 217.199219 276.699219 231.980469 273.871094 246.75 C 288.144531 221.871094 300.335938 176.273438 275.925781 119.445312 C 296.355469 147.261719 293.582031 165.964844 297.523438 187.992188 C 303.699219 173.738281 307.46875 158.277344 310.894531 142.640625 C 313.324219 175.636719 307.800781 206.179688 294.953125 233.863281 C 288.386719 248.007812 276.523438 259.007812 267.183594 271.488281 C 260.066406 281 256.558594 292.28125 254.839844 304.472656 C 245.308594 293.214844 240.859375 278.136719 236.84375 262.726562 C 225.617188 278.875 219.097656 295.886719 222.960938 314.78125 C 204.875 295.539062 193.394531 274.410156 184.90625 252.417969 C 182.335938 274.234375 186.449219 296.054688 200.332031 317.875 Z M 200.332031 317.875 "/>
<path style=" stroke:none;fill-rule:evenodd;fill:rgb(100%,8.628845%,8.628845%);fill-opacity:1;" d="M 228.121094 122.496094 C 225.828125 102.261719 263.152344 101.449219 254.226562 119.335938 C 253.929688 117.984375 252.9375 116.226562 250.625 115.277344 C 249.519531 114.820312 247.011719 113.867188 245.675781 115.953125 C 244.628906 117.585938 244.65625 120.808594 241.699219 123.589844 C 237.085938 127.921875 229.0625 130.855469 228.121094 122.496094 Z M 228.121094 122.496094 "/>
<path style=" stroke:none;fill-rule:evenodd;fill:rgb(100%,100%,100%);fill-opacity:1;" d="M 90.507812 150.03125 C 85.085938 129.371094 92.667969 108.722656 102.960938 88.0625 C 79.089844 113.054688 69.304688 138.65625 66.644531 164.566406 C 72.640625 160.183594 78.636719 155.800781 84.632812 151.414062 C 81.863281 164.453125 79.097656 177.492188 76.328125 190.53125 C 82.371094 178.839844 89.015625 168.097656 99.15625 161.109375 C 103.65625 158.003906 104.347656 153.257812 105.378906 149.339844 C 107.109375 155.453125 106.996094 163.761719 105.035156 170.800781 C 107.730469 164.855469 112.136719 159.425781 117.484375 155.222656 C 120.601562 152.769531 118.9375 147.464844 110.570312 145.53125 C 111.617188 142.757812 108.617188 139.988281 105.035156 137.21875 C 113.339844 136.863281 121.292969 137.433594 126.820312 144.488281 C 129.359375 144.257812 131.433594 144.488281 133.046875 145.183594 C 128.667969 147.722656 125.394531 150.105469 124.054688 152.800781 C 122.859375 155.214844 123.269531 158.722656 120.597656 160.414062 C 115.292969 163.773438 110.726562 168.171875 107.800781 172.878906 C 111.140625 173.921875 114.824219 174.605469 120.945312 172.878906 C 123.015625 172.292969 126.714844 170.996094 131.316406 172.53125 C 137.339844 174.539062 139.621094 178.761719 139.621094 181.878906 C 136.160156 181.878906 133.4375 182.070312 132.007812 183.261719 C 130.625 184.417969 129.988281 186.328125 128.550781 187.417969 C 125.207031 189.945312 121.863281 190.414062 119.214844 189.839844 C 114.179688 203.277344 127.230469 210.226562 138.234375 214.414062 C 152.78125 219.960938 164.851562 218.847656 171.433594 213.726562 C 178.929688 208.1875 180.082031 201.375 178.351562 193.992188 C 177.449219 187.070312 170.0625 180.148438 161.753906 173.222656 C 168.667969 174.492188 173.742188 175.761719 176.96875 177.03125 C 180.714844 178.992188 182.804688 181.738281 185.269531 182.917969 C 189.558594 184.964844 193.25 182.539062 193.570312 178.070312 C 194.351562 167.0625 202.132812 155.121094 214.316406 153.839844 C 217.625 153.488281 218.277344 149.214844 218.472656 145.53125 C 218.625 142.625 218.332031 139.191406 216.046875 136.875 C 201.972656 122.597656 185.125 113.941406 167.285156 111.257812 C 142.75 107.566406 125.953125 119.472656 112.296875 134.105469 C 112.296875 130.296875 112.296875 126.488281 112.296875 122.679688 C 105.035156 131.796875 97.773438 140.910156 90.507812 150.03125 Z M 90.507812 150.03125 "/>
<path style=" stroke:none;fill-rule:evenodd;fill:rgb(100%,100%,100%);fill-opacity:1;" d="M 103.996094 183.957031 C 108.296875 186.019531 111.324219 189.636719 110.914062 193.300781 C 110.15625 200.03125 106.570312 206.121094 104.6875 212.34375 C 103.519531 216.203125 100.460938 216.109375 97.082031 212.34375 C 93.3125 208.148438 90.074219 202.738281 89.125 196.414062 C 87.757812 187.296875 95.132812 179.699219 103.996094 183.957031 Z M 103.996094 183.957031 "/>
<path style=" stroke:none;fill-rule:evenodd;fill:rgb(100%,100%,100%);fill-opacity:1;" d="M 119.90625 211.300781 C 112.980469 206.089844 105.15625 219.976562 105.726562 225.839844 C 106.324219 231.960938 109.554688 244.511719 117.832031 238.652344 C 119.808594 237.25 120.621094 234.933594 125.09375 236.917969 C 129.449219 238.855469 129.757812 244.25 141.347656 243.496094 C 150.648438 242.894531 158.386719 233.183594 160.371094 224.804688 C 144.484375 223.128906 130.398438 219.199219 119.90625 211.300781 Z M 119.90625 211.300781 "/>
<path style=" stroke:none;fill-rule:evenodd;fill:rgb(100%,8.628845%,8.628845%);fill-opacity:1;" d="M 137.542969 143.453125 C 140.65625 143.90625 143.828125 144.5625 146.882812 143.796875 C 150.242188 142.960938 153.703125 141.761719 156.21875 138.953125 C 162.40625 132.046875 168.550781 131.753906 174.894531 130.296875 C 173.164062 131.441406 171.308594 132.351562 170.054688 134.453125 C 179.285156 135.082031 186.671875 136.632812 193.222656 138.609375 C 185.953125 138.5625 178.566406 138.6875 170.398438 139.992188 C 179.824219 145.117188 182.1875 149.851562 183.539062 154.53125 C 180.800781 152.800781 178.828125 150.625 173.164062 149.683594 C 171.910156 149.476562 170.511719 149.488281 169.363281 150.03125 C 163.546875 152.78125 154.332031 151.386719 148.265625 151.070312 C 150.222656 149.914062 152.1875 148.761719 154.144531 147.609375 C 146.101562 149.582031 140.234375 149.089844 137.542969 143.453125 Z M 137.542969 143.453125 "/>
</g>
</svg>
