<?xml version="1.0" encoding="UTF-8"?><svg xmlns="http://www.w3.org/2000/svg" xmlns:xlink="http://www.w3.org/1999/xlink" width="375pt" zoomAndPan="magnify" viewBox="0 0 375 374.999991" height="374.999991pt" preserveAspectRatio="xMidYMid meet" version="1.2"><defs><g/><clipPath xml:id="clip1" id="clip1"><path d="M 61 97 L 317.667969 97 L 317.667969 223 L 61 223 Z M 61 97 "/></clipPath></defs><g xml:id="surface1" id="surface1"><rect x="0" width="375" y="0" height="374.999991" style="fill:rgb(100%,100%,100%);fill-opacity:1;stroke:none;"/><rect x="0" width="375" y="0" height="374.999991" style="fill:rgb(100%,100%,100%);fill-opacity:1;stroke:none;"/><rect x="0" width="375" y="0" height="374.999991" style="fill:rgb(100%,100%,100%);fill-opacity:1;stroke:none;"/><path style=" stroke:none;fill-rule:nonzero;fill:rgb(20.388794%,41.569519%,68.629456%);fill-opacity:1;" d="M 188.605469 0 C 185.558594 0 182.507812 0.0742188 179.460938 0.226562 C 176.414062 0.375 173.375 0.601562 170.339844 0.902344 C 167.304688 1.203125 164.277344 1.578125 161.261719 2.03125 C 158.242188 2.480469 155.238281 3.003906 152.246094 3.601562 C 149.253906 4.203125 146.28125 4.875 143.320312 5.617188 C 140.363281 6.363281 137.425781 7.183594 134.503906 8.074219 C 131.585938 8.964844 128.691406 9.925781 125.820312 10.960938 C 122.949219 11.996094 120.101562 13.097656 117.285156 14.273438 C 114.464844 15.445312 111.679688 16.691406 108.921875 18.003906 C 106.164062 19.3125 103.441406 20.691406 100.75 22.140625 C 98.0625 23.585938 95.40625 25.097656 92.792969 26.675781 C 90.175781 28.253906 87.597656 29.894531 85.0625 31.597656 C 82.527344 33.304688 80.035156 35.070312 77.582031 36.898438 C 75.132812 38.726562 72.730469 40.613281 70.371094 42.558594 C 68.015625 44.507812 65.707031 46.511719 63.445312 48.570312 C 61.183594 50.632812 58.976562 52.746094 56.820312 54.917969 C 54.664062 57.085938 52.5625 59.308594 50.511719 61.582031 C 48.464844 63.855469 46.472656 66.179688 44.539062 68.550781 C 42.601562 70.921875 40.726562 73.339844 38.910156 75.804688 C 37.09375 78.269531 35.335938 80.777344 33.640625 83.332031 C 31.949219 85.882812 30.316406 88.472656 28.746094 91.105469 C 27.179688 93.738281 25.675781 96.40625 24.238281 99.113281 C 22.800781 101.820312 21.429688 104.558594 20.125 107.332031 C 18.820312 110.105469 17.585938 112.910156 16.417969 115.746094 C 15.25 118.582031 14.15625 121.445312 13.125 124.332031 C 12.097656 127.222656 11.144531 130.136719 10.257812 133.070312 C 9.371094 136.007812 8.558594 138.964844 7.816406 141.941406 C 7.078125 144.917969 6.410156 147.910156 5.8125 150.921875 C 5.21875 153.929688 4.695312 156.953125 4.25 159.988281 C 3.800781 163.023438 3.429688 166.066406 3.128906 169.121094 C 2.832031 172.175781 2.605469 175.234375 2.457031 178.300781 C 2.308594 181.363281 2.230469 184.429688 2.230469 187.5 C 2.230469 190.570312 2.308594 193.636719 2.457031 196.699219 C 2.605469 199.765625 2.832031 202.824219 3.128906 205.878906 C 3.429688 208.933594 3.800781 211.976562 4.25 215.011719 C 4.695312 218.046875 5.21875 221.070312 5.8125 224.078125 C 6.410156 227.089844 7.078125 230.082031 7.816406 233.058594 C 8.558594 236.035156 9.371094 238.992188 10.257812 241.929688 C 11.144531 244.863281 12.097656 247.777344 13.125 250.667969 C 14.15625 253.554688 15.25 256.417969 16.417969 259.253906 C 17.585938 262.089844 18.820312 264.890625 20.125 267.667969 C 21.429688 270.441406 22.800781 273.179688 24.238281 275.886719 C 25.675781 278.59375 27.179688 281.261719 28.746094 283.894531 C 30.316406 286.527344 31.949219 289.117188 33.640625 291.667969 C 35.335938 294.222656 37.09375 296.730469 38.910156 299.195312 C 40.726562 301.660156 42.601562 304.078125 44.539062 306.449219 C 46.472656 308.820312 48.464844 311.144531 50.511719 313.417969 C 52.5625 315.691406 54.664062 317.914062 56.820312 320.082031 C 58.976562 322.253906 61.183594 324.367188 63.445312 326.429688 C 65.707031 328.488281 68.015625 330.492188 70.371094 332.4375 C 72.730469 334.386719 75.132812 336.273438 77.582031 338.101562 C 80.035156 339.929688 82.527344 341.695312 85.0625 343.402344 C 87.597656 345.105469 90.175781 346.746094 92.792969 348.324219 C 95.40625 349.902344 98.0625 351.414062 100.75 352.859375 C 103.441406 354.308594 106.164062 355.6875 108.921875 356.996094 C 111.679688 358.308594 114.464844 359.554688 117.285156 360.726562 C 120.101562 361.902344 122.949219 363.003906 125.820312 364.039062 C 128.691406 365.074219 131.585938 366.035156 134.503906 366.925781 C 137.425781 367.816406 140.363281 368.636719 143.320312 369.378906 C 146.28125 370.125 149.253906 370.796875 152.246094 371.398438 C 155.238281 371.996094 158.242188 372.519531 161.261719 372.96875 C 164.277344 373.421875 167.304688 373.796875 170.339844 374.097656 C 173.375 374.398438 176.414062 374.625 179.460938 374.773438 C 182.507812 374.925781 185.558594 375 188.605469 375 C 191.65625 375 194.707031 374.925781 197.753906 374.773438 C 200.796875 374.625 203.839844 374.398438 206.875 374.097656 C 209.910156 373.796875 212.9375 373.421875 215.953125 372.96875 C 218.972656 372.519531 221.976562 371.996094 224.96875 371.398438 C 227.957031 370.796875 230.933594 370.125 233.890625 369.378906 C 236.851562 368.636719 239.789062 367.816406 242.707031 366.925781 C 245.628906 366.035156 248.523438 365.074219 251.394531 364.039062 C 254.265625 363.003906 257.113281 361.902344 259.929688 360.726562 C 262.746094 359.554688 265.535156 358.308594 268.292969 356.996094 C 271.050781 355.6875 273.773438 354.308594 276.464844 352.859375 C 279.152344 351.414062 281.808594 349.902344 284.421875 348.324219 C 287.039062 346.746094 289.617188 345.105469 292.152344 343.402344 C 294.6875 341.695312 297.179688 339.929688 299.628906 338.101562 C 302.082031 336.273438 304.484375 334.386719 306.84375 332.4375 C 309.199219 330.492188 311.507812 328.488281 313.769531 326.429688 C 316.027344 324.367188 318.238281 322.253906 320.394531 320.082031 C 322.550781 317.914062 324.652344 315.691406 326.703125 313.417969 C 328.75 311.144531 330.742188 308.820312 332.675781 306.449219 C 334.613281 304.078125 336.488281 301.660156 338.304688 299.195312 C 340.121094 296.730469 341.878906 294.222656 343.570312 291.667969 C 345.265625 289.117188 346.898438 286.527344 348.464844 283.894531 C 350.035156 281.261719 351.539062 278.59375 352.976562 275.886719 C 354.414062 273.179688 355.785156 270.441406 357.089844 267.667969 C 358.390625 264.890625 359.628906 262.089844 360.796875 259.253906 C 361.960938 256.417969 363.058594 253.554688 364.085938 250.667969 C 365.113281 247.777344 366.070312 244.863281 366.957031 241.929688 C 367.84375 238.992188 368.65625 236.035156 369.398438 233.058594 C 370.136719 230.082031 370.804688 227.089844 371.402344 224.078125 C 371.996094 221.070312 372.515625 218.046875 372.964844 215.011719 C 373.414062 211.976562 373.785156 208.933594 374.085938 205.878906 C 374.382812 202.824219 374.609375 199.765625 374.757812 196.699219 C 374.90625 193.636719 374.980469 190.570312 374.980469 187.5 C 374.980469 184.429688 374.90625 181.363281 374.757812 178.300781 C 374.609375 175.234375 374.382812 172.175781 374.085938 169.121094 C 373.785156 166.066406 373.414062 163.023438 372.964844 159.988281 C 372.515625 156.953125 371.996094 153.929688 371.402344 150.921875 C 370.804688 147.910156 370.136719 144.917969 369.398438 141.941406 C 368.65625 138.964844 367.84375 136.007812 366.957031 133.070312 C 366.070312 130.136719 365.113281 127.222656 364.085938 124.332031 C 363.058594 121.445312 361.960938 118.582031 360.796875 115.746094 C 359.628906 112.910156 358.390625 110.105469 357.089844 107.332031 C 355.785156 104.558594 354.414062 101.820312 352.976562 99.113281 C 351.539062 96.40625 350.035156 93.738281 348.464844 91.105469 C 346.898438 88.472656 345.265625 85.882812 343.570312 83.332031 C 341.878906 80.777344 340.121094 78.269531 338.304688 75.804688 C 336.488281 73.339844 334.613281 70.921875 332.675781 68.550781 C 330.742188 66.179688 328.75 63.855469 326.703125 61.582031 C 324.652344 59.308594 322.550781 57.085938 320.394531 54.917969 C 318.238281 52.746094 316.027344 50.632812 313.769531 48.570312 C 311.507812 46.511719 309.199219 44.507812 306.84375 42.558594 C 304.484375 40.613281 302.082031 38.726562 299.628906 36.898438 C 297.179688 35.070312 294.6875 33.304688 292.152344 31.597656 C 289.617188 29.894531 287.039062 28.253906 284.421875 26.675781 C 281.808594 25.097656 279.152344 23.585938 276.464844 22.140625 C 273.773438 20.691406 271.050781 19.3125 268.292969 18.003906 C 265.535156 16.691406 262.746094 15.445312 259.929688 14.273438 C 257.113281 13.097656 254.265625 11.996094 251.394531 10.960938 C 248.523438 9.925781 245.628906 8.964844 242.707031 8.074219 C 239.789062 7.183594 236.851562 6.363281 233.890625 5.617188 C 230.933594 4.875 227.957031 4.203125 224.96875 3.601562 C 221.976562 3.003906 218.972656 2.480469 215.953125 2.03125 C 212.9375 1.578125 209.910156 1.203125 206.875 0.902344 C 203.839844 0.601562 200.796875 0.375 197.753906 0.226562 C 194.707031 0.0742188 191.65625 0 188.605469 0 Z M 188.605469 0 "/><g clip-rule="nonzero" clip-path="url(#clip1)"><path style=" stroke:none;fill-rule:nonzero;fill:rgb(96.078491%,94.509888%,92.158508%);fill-opacity:1;" d="M 317.1875 106.085938 C 315.960938 102.007812 309.8125 96.769531 304.964844 97.632812 C 294.421875 99.496094 284.046875 102.03125 273.707031 104.78125 C 259.441406 108.578125 246.164062 114.972656 232.28125 119.757812 C 231.160156 120.144531 230.511719 120.542969 231.035156 121.859375 C 232.851562 126.53125 237.617188 128.847656 242.316406 127.304688 C 243.394531 126.953125 244.4375 126.460938 245.503906 126.078125 C 253.972656 123.03125 262.132812 119.179688 270.699219 116.40625 C 271.074219 116.097656 271.472656 115.929688 271.890625 115.804688 C 271.496094 115.996094 271.085938 116.179688 270.699219 116.40625 C 272.152344 116.710938 273.503906 116.121094 274.867188 115.828125 C 279.691406 114.757812 284.5 113.609375 289.300781 112.460938 C 290.121094 112.269531 290.9375 111.757812 291.402344 112.953125 C 269.601562 134.519531 248.09375 156.382812 226.960938 178.609375 C 222.226562 183.585938 217.300781 188.40625 212.296875 193.132812 C 205.941406 199.132812 199.289062 204.816406 191.992188 209.65625 C 188.292969 212.109375 184.46875 214.347656 180.257812 215.828125 C 175.421875 217.519531 173.957031 217.121094 170.574219 213.203125 C 167.332031 209.441406 165.492188 204.929688 163.980469 200.269531 C 160.953125 190.882812 160.203125 181.203125 160.339844 171.394531 C 160.519531 158.167969 162.722656 145.15625 164.46875 132.085938 C 165.171875 126.835938 166.023438 121.597656 165.808594 116.257812 C 165.683594 113.097656 164.332031 110.710938 161.632812 109.222656 C 156.105469 106.191406 150.523438 104.667969 144.925781 109.179688 C 143.699219 110.167969 142.351562 110.996094 141.078125 111.917969 C 131.875 118.542969 123.417969 126.078125 115.316406 133.984375 C 107.3125 141.792969 99.878906 150.109375 93.46875 159.316406 C 92.980469 159.453125 92.707031 159.746094 92.730469 160.269531 L 92.683594 160.335938 C 92.015625 160.621094 91.6875 161.144531 91.605469 161.847656 C 91.050781 162.460938 90.402344 163.007812 89.960938 163.691406 C 85.34375 170.757812 80.746094 177.847656 76.171875 184.941406 C 75.808594 185.507812 75.605469 186.191406 75.34375 186.828125 C 74.855469 186.960938 74.652344 187.292969 74.71875 187.792969 C 74.46875 187.90625 74.378906 188.085938 74.445312 188.347656 C 73.902344 188.554688 73.71875 188.972656 73.753906 189.519531 L 73.742188 189.542969 C 73.074219 189.90625 72.8125 190.484375 72.8125 191.210938 C 68.714844 197.621094 65.84375 204.621094 63.140625 211.691406 C 60.726562 217.996094 61.234375 218.882812 67.683594 220.371094 C 70.144531 220.941406 71.210938 220.453125 71.882812 218.054688 C 73.617188 211.804688 76.535156 206.066406 79.40625 200.316406 C 93.386719 172.359375 113.214844 148.972656 136.074219 127.972656 C 141.035156 123.417969 146.300781 119.203125 151.996094 115.585938 C 153.019531 114.941406 153.949219 113.917969 155.4375 114.179688 C 155.664062 117.234375 155.253906 120.222656 154.6875 123.179688 C 153.210938 130.90625 151.726562 138.632812 150.65625 146.441406 C 148.761719 160.28125 147.933594 174.132812 150.351562 187.984375 C 151.769531 196.078125 154.097656 203.882812 158.863281 210.722656 C 165.09375 219.644531 178.125 224.316406 188.101562 221.257812 C 188.859375 221.394531 189.542969 221.316406 190.019531 220.597656 L 190.390625 220.621094 L 190.6875 220.40625 C 191.425781 220.53125 192.003906 220.292969 192.414062 219.65625 L 192.433594 219.644531 C 193.171875 219.703125 193.796875 219.53125 194.183594 218.828125 C 194.910156 218.847656 195.542969 218.679688 195.898438 217.960938 C 201.253906 215.953125 205.644531 212.371094 210.300781 209.191406 C 214.976562 206.484375 218.925781 202.929688 222.476562 198.882812 C 226.859375 194.78125 231.386719 190.828125 235.585938 186.554688 C 251.40625 170.417969 267.113281 154.179688 282.855469 137.960938 C 283.140625 137.667969 283.34375 137.28125 283.582031 136.929688 C 283.878906 136.679688 284.148438 136.40625 284.386719 136.109375 L 284.421875 136.078125 C 286.453125 134.679688 288.089844 132.882812 289.609375 130.960938 C 290.132812 130.90625 290.425781 130.632812 290.460938 130.097656 C 291.96875 129.335938 293.023438 128.109375 293.945312 126.734375 C 294.21875 126.78125 294.457031 126.703125 294.648438 126.507812 C 295.046875 126.566406 295.441406 126.621094 295.839844 126.667969 C 295.316406 128.597656 294.820312 130.53125 294.261719 132.453125 C 291.300781 142.644531 289.144531 152.996094 288.699219 163.632812 C 288.507812 168.179688 291.175781 171.917969 295.566406 173.816406 C 295.589844 173.019531 295.601562 172.222656 295.625 171.429688 C 295.761719 171.453125 295.898438 171.472656 296.042969 171.496094 C 296.167969 171.519531 296.304688 171.53125 296.429688 171.566406 C 296.464844 171.828125 296.488281 172.109375 296.519531 172.382812 C 296.601562 172.960938 296.769531 173.554688 297.507812 174.085938 C 298.835938 172.472656 297.632812 170.179688 298.9375 168.691406 C 299.007812 167.328125 299.074219 165.972656 299.140625 164.609375 C 300.050781 163.269531 300.003906 161.746094 299.960938 160.234375 L 300.175781 160.019531 L 300.0625 159.734375 C 300.925781 158.609375 300.878906 157.304688 300.867188 155.984375 C 301.707031 154.960938 301.742188 153.746094 301.695312 152.519531 C 302.546875 151.53125 302.625 150.335938 302.617188 149.121094 C 303.398438 148.382812 303.445312 147.441406 303.363281 146.460938 L 303.589844 146.257812 L 303.511719 145.960938 C 304.363281 145.15625 304.328125 144.097656 304.351562 143.054688 C 304.523438 142.828125 304.761719 142.621094 304.839844 142.371094 C 308.300781 130.894531 310.503906 118.972656 316.90625 108.542969 C 317.3125 107.835938 317.449219 106.984375 317.1875 106.085938 Z M 70.269531 202.453125 Z M 75.386719 192.210938 C 75.398438 192.191406 75.398438 192.179688 75.410156 192.15625 C 75.398438 192.167969 75.398438 192.167969 75.386719 192.179688 C 75.398438 192.167969 75.410156 192.15625 75.410156 192.132812 C 75.410156 192.144531 75.410156 192.144531 75.398438 192.15625 C 75.410156 192.144531 75.421875 192.132812 75.421875 192.121094 C 75.421875 192.109375 75.421875 192.109375 75.421875 192.097656 C 75.445312 192.085938 75.445312 192.078125 75.46875 192.066406 C 75.445312 192.121094 75.421875 192.167969 75.386719 192.210938 Z M 76.273438 190.429688 C 76.273438 190.429688 76.273438 190.417969 76.273438 190.429688 C 76.273438 190.429688 76.261719 190.429688 76.261719 190.429688 C 76.273438 190.417969 76.273438 190.417969 76.273438 190.40625 C 76.285156 190.417969 76.273438 190.417969 76.273438 190.429688 C 76.285156 190.417969 76.285156 190.417969 76.273438 190.429688 C 76.285156 190.417969 76.285156 190.417969 76.273438 190.429688 Z M 76.296875 190.40625 C 76.296875 190.40625 76.296875 190.394531 76.296875 190.394531 C 76.308594 190.394531 76.308594 190.382812 76.320312 190.371094 C 76.308594 190.382812 76.296875 190.394531 76.296875 190.40625 Z M 77.160156 188.679688 C 77.160156 188.679688 77.160156 188.667969 77.160156 188.679688 C 77.160156 188.667969 77.148438 188.679688 77.148438 188.679688 C 77.136719 188.679688 77.148438 188.679688 77.160156 188.679688 L 77.148438 188.679688 C 77.148438 188.691406 77.148438 188.691406 77.148438 188.703125 C 77.136719 188.710938 77.136719 188.710938 77.125 188.722656 C 77.136719 188.703125 77.160156 188.679688 77.171875 188.667969 C 77.160156 188.65625 77.160156 188.667969 77.160156 188.679688 C 77.160156 188.667969 77.171875 188.667969 77.171875 188.65625 C 77.160156 188.667969 77.160156 188.667969 77.160156 188.679688 Z M 78.179688 186.703125 C 78.113281 186.78125 78.066406 186.871094 78.011719 186.953125 C 78.011719 186.953125 78.011719 186.941406 78.011719 186.941406 C 78.011719 186.941406 78.011719 186.953125 78 186.953125 C 78 186.953125 78 186.960938 78 186.960938 C 78 186.960938 78 186.972656 77.988281 186.972656 C 77.976562 186.984375 77.964844 186.996094 77.953125 186.996094 C 77.964844 186.972656 77.988281 186.941406 78 186.917969 C 78 186.929688 78 186.929688 78 186.941406 C 78.054688 186.847656 78.113281 186.769531 78.179688 186.679688 C 78.179688 186.691406 78.179688 186.691406 78.179688 186.703125 Z M 194.964844 216.234375 C 194.964844 216.234375 194.953125 216.246094 194.953125 216.246094 C 194.964844 216.246094 194.964844 216.246094 194.976562 216.246094 C 194.976562 216.246094 194.964844 216.234375 194.964844 216.234375 C 194.964844 216.234375 194.976562 216.246094 194.976562 216.246094 C 194.976562 216.234375 194.988281 216.234375 194.988281 216.234375 C 194.976562 216.222656 194.976562 216.222656 194.964844 216.234375 C 194.988281 216.222656 195 216.210938 195.011719 216.203125 C 195 216.210938 195 216.222656 194.988281 216.234375 C 195 216.234375 195 216.234375 195.011719 216.234375 C 194.976562 216.257812 194.953125 216.28125 194.921875 216.292969 C 194.933594 216.269531 194.945312 216.269531 194.953125 216.246094 C 194.953125 216.246094 194.945312 216.246094 194.945312 216.246094 C 194.953125 216.234375 194.953125 216.234375 194.964844 216.234375 Z M 193.285156 217.066406 C 193.273438 217.078125 193.273438 217.078125 193.261719 217.085938 C 193.261719 217.085938 193.261719 217.085938 193.273438 217.085938 C 193.261719 217.085938 193.261719 217.097656 193.253906 217.097656 C 193.253906 217.097656 193.261719 217.085938 193.261719 217.085938 C 193.253906 217.085938 193.253906 217.085938 193.242188 217.085938 C 193.261719 217.078125 193.273438 217.078125 193.285156 217.066406 Z M 193.242188 217.085938 C 193.242188 217.097656 193.230469 217.097656 193.230469 217.097656 C 193.242188 217.097656 193.242188 217.097656 193.253906 217.097656 C 193.242188 217.109375 193.21875 217.121094 193.207031 217.132812 C 193.21875 217.121094 193.230469 217.109375 193.230469 217.097656 C 193.230469 217.097656 193.21875 217.097656 193.21875 217.097656 C 193.230469 217.097656 193.242188 217.097656 193.242188 217.085938 Z M 193.242188 217.085938 "/></g><path style=" stroke:none;fill-rule:nonzero;fill:rgb(96.078491%,94.509888%,92.158508%);fill-opacity:1;" d="M 284.355469 136.144531 C 284.082031 136.417969 283.808594 136.691406 283.546875 136.960938 C 284.035156 136.90625 284.308594 136.632812 284.355469 136.144531 Z M 284.355469 136.144531 "/><g style="fill:rgb(100%,100%,100%);fill-opacity:1;"><g transform="translate(60.567914, 265.704285)"><path style="stroke:none;" d="M 7.945312 -9.023438 L 8.875 -9.171875 C 17.042969 -10.359375 20.050781 -13.070312 20.050781 -16.933594 C 20.050781 -20.164062 18.007812 -23.058594 10.175781 -23.058594 C 8.019531 -23.058594 4.492188 -22.910156 1.078125 -23.058594 L 1.078125 -22.019531 C 3.007812 -21.871094 3.566406 -21.277344 3.566406 -20.199219 L 3.566406 -2.894531 C 3.566406 -1.597656 2.933594 -1.1875 0.929688 -1.039062 L 0.929688 0 C 4.121094 -0.113281 7.351562 -0.113281 10.546875 0 L 10.546875 -1.039062 C 8.578125 -1.1875 7.945312 -1.597656 7.945312 -2.894531 Z M 7.945312 -10.285156 L 7.945312 -21.90625 L 10.804688 -21.90625 C 14.257812 -21.90625 15.746094 -19.71875 15.746094 -16.746094 C 15.746094 -13.515625 14.109375 -11.066406 8.875 -10.398438 Z M 7.945312 -10.285156 "/></g></g><g style="fill:rgb(100%,100%,100%);fill-opacity:1;"><g transform="translate(81.543537, 265.704285)"><path style="stroke:none;" d="M 12.402344 -19.011719 C 9.765625 -19.011719 7.871094 -17.117188 6.648438 -14 L 6.425781 -14 L 7.242188 -18.15625 C 7.09375 -18.566406 6.796875 -18.863281 6.386719 -19.011719 C 4.789062 -18.007812 3.007812 -17.304688 0.742188 -16.894531 L 0.742188 -15.855469 C 2.191406 -16.042969 2.96875 -15.707031 2.96875 -14.296875 L 2.96875 -2.414062 C 2.96875 -1.484375 1.96875 -1.1875 0.742188 -1.039062 L 0.742188 0 C 3.640625 -0.148438 6.683594 -0.148438 9.65625 0 L 9.65625 -1.039062 C 8.355469 -1.1875 7.203125 -1.484375 7.203125 -2.414062 L 7.203125 -12.699219 C 7.316406 -13.515625 8.28125 -16.300781 10.25 -16.300781 C 11.84375 -16.300781 12.105469 -14.59375 13.738281 -14.59375 C 14.777344 -14.59375 15.59375 -15.335938 15.59375 -16.523438 C 15.59375 -17.972656 14.371094 -19.011719 12.402344 -19.011719 Z M 12.402344 -19.011719 "/></g></g><g style="fill:rgb(100%,100%,100%);fill-opacity:1;"><g transform="translate(97.507277, 265.704285)"><path style="stroke:none;" d="M 9.691406 -18.9375 C 5.53125 -18.9375 1.113281 -15.667969 1.113281 -9.320312 C 1.113281 -3.082031 5.53125 0.410156 9.804688 0.410156 C 13.960938 0.410156 18.378906 -2.859375 18.378906 -9.207031 C 18.378906 -15.445312 13.960938 -18.9375 9.691406 -18.9375 Z M 10.285156 -0.78125 C 7.425781 -0.78125 5.570312 -4.789062 5.570312 -10.398438 C 5.570312 -15.261719 6.945312 -17.75 9.207031 -17.75 C 12.066406 -17.75 13.925781 -13.777344 13.925781 -8.167969 C 13.925781 -3.269531 12.550781 -0.78125 10.285156 -0.78125 Z M 10.285156 -0.78125 "/></g></g><g style="fill:rgb(100%,100%,100%);fill-opacity:1;"><g transform="translate(116.997891, 265.704285)"><path style="stroke:none;" d="M 11.175781 -1.078125 L 11.175781 -2.339844 C 10.730469 -1.929688 9.878906 -1.335938 8.835938 -1.335938 C 7.316406 -1.335938 6.945312 -2.636719 6.945312 -4.160156 L 6.945312 -17.339844 L 11.175781 -17.339844 L 11.175781 -18.601562 L 6.945312 -18.601562 L 6.945312 -23.652344 L 5.605469 -23.652344 C 5.011719 -20.199219 3.714844 -18.601562 0.742188 -18.601562 L 0.742188 -17.339844 L 2.746094 -17.339844 L 2.746094 -4.863281 C 2.746094 -1.1875 4.789062 0.261719 7.425781 0.261719 C 9.023438 0.261719 10.398438 -0.261719 11.175781 -1.078125 Z M 11.175781 -1.078125 "/></g></g><g style="fill:rgb(100%,100%,100%);fill-opacity:1;"><g transform="translate(129.286259, 265.704285)"><path style="stroke:none;" d="M 9.691406 -18.9375 C 5.53125 -18.9375 1.113281 -15.667969 1.113281 -9.320312 C 1.113281 -3.082031 5.53125 0.410156 9.804688 0.410156 C 13.960938 0.410156 18.378906 -2.859375 18.378906 -9.207031 C 18.378906 -15.445312 13.960938 -18.9375 9.691406 -18.9375 Z M 10.285156 -0.78125 C 7.425781 -0.78125 5.570312 -4.789062 5.570312 -10.398438 C 5.570312 -15.261719 6.945312 -17.75 9.207031 -17.75 C 12.066406 -17.75 13.925781 -13.777344 13.925781 -8.167969 C 13.925781 -3.269531 12.550781 -0.78125 10.285156 -0.78125 Z M 10.285156 -0.78125 "/></g></g><g style="fill:rgb(100%,100%,100%);fill-opacity:1;"><g transform="translate(148.776874, 265.704285)"><path style="stroke:none;" d="M 11.175781 -1.078125 L 11.175781 -2.339844 C 10.730469 -1.929688 9.878906 -1.335938 8.835938 -1.335938 C 7.316406 -1.335938 6.945312 -2.636719 6.945312 -4.160156 L 6.945312 -17.339844 L 11.175781 -17.339844 L 11.175781 -18.601562 L 6.945312 -18.601562 L 6.945312 -23.652344 L 5.605469 -23.652344 C 5.011719 -20.199219 3.714844 -18.601562 0.742188 -18.601562 L 0.742188 -17.339844 L 2.746094 -17.339844 L 2.746094 -4.863281 C 2.746094 -1.1875 4.789062 0.261719 7.425781 0.261719 C 9.023438 0.261719 10.398438 -0.261719 11.175781 -1.078125 Z M 11.175781 -1.078125 "/></g></g><g style="fill:rgb(100%,100%,100%);fill-opacity:1;"><g transform="translate(161.065241, 265.704285)"><path style="stroke:none;" d="M 13.40625 -18.601562 L 13.40625 -17.527344 L 14.519531 -17.453125 C 15.222656 -17.378906 16.191406 -16.933594 15.707031 -15.632812 L 11.621094 -4.976562 L 7.5 -15.667969 C 6.980469 -16.933594 7.5 -17.414062 8.167969 -17.453125 L 9.320312 -17.527344 L 9.320312 -18.601562 L 0.558594 -18.601562 L 0.558594 -17.527344 L 1.671875 -17.453125 C 2.300781 -17.414062 2.820312 -16.96875 3.34375 -15.707031 L 9.765625 -0.148438 L 6.460938 7.984375 L 8.09375 7.984375 L 17.007812 -15.632812 C 17.488281 -16.894531 18.121094 -17.339844 19.011719 -17.453125 L 20.015625 -17.527344 L 20.015625 -18.601562 Z M 13.40625 -18.601562 "/></g></g><g style="fill:rgb(100%,100%,100%);fill-opacity:1;"><g transform="translate(181.632481, 265.704285)"><path style="stroke:none;" d="M 11.992188 -18.9375 C 9.804688 -18.9375 8.132812 -17.898438 6.980469 -16.710938 C 7.019531 -17.230469 7.054688 -17.710938 7.128906 -18.15625 C 6.980469 -18.566406 6.683594 -18.863281 6.277344 -19.011719 C 4.605469 -17.972656 2.671875 -17.265625 0.558594 -16.894531 L 0.558594 -15.855469 C 1.96875 -16.042969 2.746094 -15.707031 2.746094 -14.296875 L 2.746094 4.011719 C 2.746094 5.792969 2.414062 6.609375 2.042969 7.128906 C 2.226562 7.539062 2.523438 7.835938 2.933594 7.984375 C 4.902344 6.90625 6.980469 6.277344 9.46875 5.941406 L 9.46875 4.828125 C 7.648438 4.902344 6.945312 4.53125 6.945312 2.859375 L 6.945312 -1.597656 C 7.910156 -0.558594 9.355469 0.410156 11.621094 0.410156 C 15.59375 0.410156 19.792969 -2.597656 19.792969 -9.246094 C 19.792969 -15.632812 15.855469 -18.9375 11.992188 -18.9375 Z M 11.585938 -0.816406 C 9.207031 -0.816406 7.019531 -3.082031 6.945312 -5.050781 L 6.945312 -15.410156 C 7.835938 -16.523438 9.207031 -17.5625 10.769531 -17.5625 C 13.851562 -17.5625 15.296875 -13.40625 15.296875 -8.019531 C 15.296875 -3.378906 14.148438 -0.816406 11.585938 -0.816406 Z M 11.585938 -0.816406 "/></g></g><g style="fill:rgb(100%,100%,100%);fill-opacity:1;"><g transform="translate(202.533855, 265.704285)"><path style="stroke:none;" d="M 16.636719 -3.675781 L 15.410156 -3.675781 C 14.40625 -1.558594 12.625 -0.816406 10.953125 -0.816406 C 7.316406 -0.816406 5.570312 -4.34375 5.570312 -9.023438 L 15.1875 -9.023438 C 16.636719 -9.023438 17.117188 -9.804688 17.117188 -11.4375 C 17.117188 -15.929688 13.851562 -18.9375 9.65625 -18.9375 C 5.234375 -18.9375 1.113281 -15.519531 1.113281 -9.246094 C 1.113281 -3.042969 5.160156 0.410156 10.027344 0.410156 C 13.21875 0.410156 15.445312 -1.003906 16.636719 -3.675781 Z M 13.109375 -10.175781 L 5.570312 -10.175781 C 5.570312 -14.890625 7.054688 -17.75 9.617188 -17.75 C 12.214844 -17.75 13.109375 -14.890625 13.109375 -10.175781 Z M 13.109375 -10.175781 "/></g></g><g style="fill:rgb(100%,100%,100%);fill-opacity:1;"><g transform="translate(220.762221, 265.704285)"><path style="stroke:none;" d="M 3.566406 0.371094 C 4.789062 0.371094 5.828125 -0.667969 5.828125 -1.929688 C 5.828125 -3.15625 4.789062 -4.195312 3.566406 -4.195312 C 2.339844 -4.195312 1.300781 -3.15625 1.300781 -1.929688 C 1.300781 -0.667969 2.339844 0.371094 3.566406 0.371094 Z M 3.566406 0.371094 "/></g></g><g style="fill:rgb(100%,100%,100%);fill-opacity:1;"><g transform="translate(227.890218, 265.704285)"><path style="stroke:none;" d="M 14.480469 -23.058594 L 14.480469 -22.019531 C 16.894531 -21.832031 18.230469 -21.535156 18.230469 -20.015625 L 18.230469 -7.796875 L 8.132812 -23.058594 C 5.753906 -22.949219 3.378906 -22.949219 0.964844 -23.058594 L 0.964844 -22.019531 C 2.96875 -21.871094 4.085938 -21.089844 4.085938 -19.644531 L 4.085938 -3.082031 C 4.085938 -1.523438 2.785156 -1.226562 0.558594 -1.039062 L 0.558594 0 C 3.34375 -0.113281 6.351562 -0.113281 9.320312 0 L 9.320312 -1.039062 C 6.945312 -1.226562 5.570312 -1.523438 5.570312 -3.082031 L 5.570312 -19.199219 L 18.417969 0 L 19.71875 0 L 19.71875 -20.015625 C 19.71875 -21.535156 21.015625 -21.832031 23.28125 -22.019531 L 23.28125 -23.058594 C 20.496094 -22.949219 17.488281 -22.949219 14.480469 -23.058594 Z M 14.480469 -23.058594 "/></g></g><g style="fill:rgb(100%,100%,100%);fill-opacity:1;"><g transform="translate(251.724461, 265.704285)"><path style="stroke:none;" d="M 17.488281 -6.089844 L 16.191406 -3.640625 C 15.222656 -1.894531 14.109375 -1.226562 11.324219 -1.226562 L 9.28125 -1.226562 C 8.167969 -1.226562 7.945312 -1.597656 7.945312 -2.894531 L 7.945312 -11.214844 L 12.363281 -11.214844 C 14.222656 -11.214844 14.703125 -10.285156 15.113281 -8.761719 L 16.042969 -8.761719 C 15.855469 -10.878906 15.855469 -12.8125 16.042969 -14.890625 L 15.113281 -14.890625 C 14.703125 -13.367188 14.222656 -12.476562 12.363281 -12.476562 L 7.945312 -12.476562 L 7.945312 -21.015625 C 7.945312 -21.609375 8.167969 -21.90625 8.761719 -21.90625 L 11.917969 -21.90625 C 14.480469 -21.90625 15.59375 -21.089844 16.5625 -19.011719 L 16.933594 -18.195312 L 17.933594 -18.195312 L 17.378906 -22.390625 C 17.304688 -22.949219 17.230469 -23.058594 16.746094 -23.058594 L 0.929688 -23.058594 L 0.929688 -22.019531 C 2.933594 -21.871094 3.566406 -21.609375 3.566406 -20.535156 L 3.566406 -2.894531 C 3.566406 -1.597656 2.933594 -1.1875 0.929688 -1.039062 L 0.929688 0 C 6.5 -0.113281 11.621094 -0.113281 17.414062 0 C 17.527344 -2.003906 17.824219 -3.9375 18.566406 -6.089844 Z M 17.488281 -6.089844 "/></g></g><g style="fill:rgb(100%,100%,100%);fill-opacity:1;"><g transform="translate(271.40071, 265.704285)"><path style="stroke:none;" d="M 18.453125 -3.527344 L 12.921875 -12.738281 L 17.414062 -19.382812 C 18.378906 -20.832031 19.71875 -21.832031 21.3125 -22.019531 L 21.3125 -23.058594 C 18.976562 -22.949219 16.636719 -22.949219 14.296875 -23.058594 L 14.296875 -22.019531 C 15.78125 -21.832031 16.785156 -20.980469 15.929688 -19.71875 L 12.140625 -14.074219 L 8.539062 -20.089844 C 7.871094 -21.164062 8.429688 -21.832031 9.878906 -22.019531 L 9.878906 -23.058594 C 6.683594 -22.949219 3.789062 -22.949219 0.929688 -23.058594 L 0.929688 -22.019531 C 2.597656 -21.832031 3.417969 -21.015625 4.382812 -19.421875 L 9.730469 -10.507812 L 5.085938 -3.601562 C 4.046875 -2.042969 2.710938 -1.152344 0.929688 -1.039062 L 0.929688 0 C 3.378906 -0.113281 5.644531 -0.113281 7.945312 0 L 7.945312 -1.039062 C 6.5 -1.1875 5.605469 -1.855469 6.609375 -3.34375 L 10.546875 -9.171875 L 14.332031 -2.894531 C 15.039062 -1.707031 14.148438 -1.1875 12.773438 -1.039062 L 12.773438 0 C 15.96875 -0.113281 18.902344 -0.113281 21.757812 0 L 21.757812 -1.039062 C 20.089844 -1.152344 19.496094 -1.855469 18.453125 -3.527344 Z M 18.453125 -3.527344 "/></g></g><g style="fill:rgb(100%,100%,100%);fill-opacity:1;"><g transform="translate(294.084089, 265.704285)"><path style="stroke:none;" d="M 18.828125 -23.355469 C 17.785156 -23.097656 16.933594 -23.058594 15.039062 -23.058594 L 6.609375 -23.058594 C 4.714844 -23.058594 3.863281 -23.097656 2.820312 -23.355469 L 1.855469 -23.355469 L 0.558594 -18.304688 L 1.597656 -18.304688 C 3.007812 -21.203125 3.640625 -21.757812 5.457031 -21.757812 L 7.984375 -21.757812 L 7.984375 -2.894531 C 7.984375 -1.597656 7.277344 -1.1875 4.902344 -1.039062 L 4.902344 0 C 8.464844 -0.113281 11.84375 -0.113281 15.445312 0 L 15.445312 -1.039062 C 13.070312 -1.1875 12.363281 -1.597656 12.363281 -2.894531 L 12.363281 -21.757812 L 15.558594 -21.757812 C 17.007812 -21.757812 17.75 -21.015625 17.414062 -18.304688 L 18.453125 -18.304688 L 19.792969 -23.355469 Z M 18.828125 -23.355469 "/></g></g></g></svg>